<svg version="1.0" xmlns="http://www.w3.org/2000/svg" width="836" height="446.667" fill="#f29668" viewBox="0 0 627 335"><path d="M0 167.5V335h627V0H0v167.5zm219.9-6.7c7.4 21.8 13.6 40.3 13.9 40.9.3 1-1.7 1.3-8 1.3h-8.5l-2.9-8.8-2.9-8.7-13.7-.3-13.8-.3-2.7 9.1-2.8 9h-8.2c-4.6 0-8.3-.3-8.3-.7 0-.3 6.2-18.8 13.8-41l13.7-40.3h17l13.4 39.8zm81.7-23.1c6.4 12.3 9 16.3 9.6 15.3.5-.8 4.5-8.4 8.9-16.8l8-15.2h8.5c4.6 0 8.4.2 8.4.5s-6.1 11.6-13.5 25.1L318 171.3V203h-15v-31.2l-13.9-25.4-13.9-25.4H292.9l8.7 16.7zm112.6 13c.3 33.1.6 34.4 7.1 38.3 4.5 2.8 14.7 2.8 19.2 0 6.2-3.8 6.5-5.5 6.5-38.4V121h16v28.8c0 30.9-.5 35.3-5.3 42.2-3 4.6-9.9 9.7-15 11.2-2.3.7-8.1 1.2-12.8 1.3-7.9 0-9.2-.3-15.5-3.5-7.4-3.8-12.3-9.5-14.4-16.8-.6-2.1-1-16.3-1-33.5V121h14.8l.4 29.7z"/><path d="M197.6 141c-1.5 3.7-9.5 30.5-9.2 30.8.2.1 4.6.1 9.8 0l9.4-.3-4.7-16c-2.6-8.8-5-15.3-5.3-14.5z"/></svg>